<mxfile host="Electron" modified="2023-04-02T18:20:17.720Z" agent="Mozilla/5.0 (Macintosh; Intel Mac OS X 10_15_7) AppleWebKit/537.36 (KHTML, like Gecko) draw.io/21.1.2 Chrome/106.0.5249.199 Electron/21.4.3 Safari/537.36" etag="p0f00jssqgfiHkcK5Qj_" version="21.1.2" type="device">
  <diagram name="Page-1" id="7kGrWxDmmMlVr75mzXDL">
    <mxGraphModel dx="954" dy="674" grid="1" gridSize="10" guides="1" tooltips="1" connect="1" arrows="1" fold="1" page="1" pageScale="1" pageWidth="850" pageHeight="1100" math="0" shadow="0">
      <root>
        <mxCell id="0" />
        <mxCell id="1" parent="0" />
        <mxCell id="gd3LbHA6IAXDdcClC6Ps-16" value=":entity" style="shape=module;align=left;spacingLeft=20;align=center;verticalAlign=top;fillColor=#d5e8d4;strokeColor=#82b366;" parent="1" vertex="1">
          <mxGeometry x="475" y="490" width="100" height="50" as="geometry" />
        </mxCell>
        <mxCell id="gd3LbHA6IAXDdcClC6Ps-17" value=":core:common" style="shape=module;align=left;spacingLeft=20;align=center;verticalAlign=top;fillColor=#d5e8d4;strokeColor=#82b366;" parent="1" vertex="1">
          <mxGeometry x="142.5" y="490" width="100" height="50" as="geometry" />
        </mxCell>
        <mxCell id="Wq6TtEWR0SI39v2RViTA-12" style="edgeStyle=orthogonalEdgeStyle;rounded=0;orthogonalLoop=1;jettySize=auto;html=1;dashed=1;endArrow=block;endFill=1;" edge="1" parent="1" source="gd3LbHA6IAXDdcClC6Ps-18" target="gd3LbHA6IAXDdcClC6Ps-21">
          <mxGeometry relative="1" as="geometry" />
        </mxCell>
        <mxCell id="Wq6TtEWR0SI39v2RViTA-14" style="edgeStyle=orthogonalEdgeStyle;rounded=0;orthogonalLoop=1;jettySize=auto;html=1;entryX=0.827;entryY=0.008;entryDx=0;entryDy=0;entryPerimeter=0;endArrow=block;endFill=1;dashed=1;" edge="1" parent="1" source="gd3LbHA6IAXDdcClC6Ps-18" target="Wq6TtEWR0SI39v2RViTA-4">
          <mxGeometry relative="1" as="geometry" />
        </mxCell>
        <mxCell id="gd3LbHA6IAXDdcClC6Ps-18" value=":app" style="shape=module;align=left;spacingLeft=20;align=center;verticalAlign=top;fillColor=#f5f5f5;fontColor=#333333;strokeColor=#666666;" parent="1" vertex="1">
          <mxGeometry x="450" y="210" width="100" height="50" as="geometry" />
        </mxCell>
        <mxCell id="Wq6TtEWR0SI39v2RViTA-2" style="edgeStyle=orthogonalEdgeStyle;rounded=0;orthogonalLoop=1;jettySize=auto;html=1;entryX=1;entryY=0.5;entryDx=0;entryDy=0;dashed=1;endArrow=block;endFill=1;" edge="1" parent="1" source="gd3LbHA6IAXDdcClC6Ps-20" target="gd3LbHA6IAXDdcClC6Ps-17">
          <mxGeometry relative="1" as="geometry" />
        </mxCell>
        <mxCell id="Wq6TtEWR0SI39v2RViTA-3" style="edgeStyle=orthogonalEdgeStyle;rounded=0;orthogonalLoop=1;jettySize=auto;html=1;entryX=0.11;entryY=0.5;entryDx=0;entryDy=0;entryPerimeter=0;dashed=1;endArrow=block;endFill=1;" edge="1" parent="1" source="gd3LbHA6IAXDdcClC6Ps-20" target="gd3LbHA6IAXDdcClC6Ps-16">
          <mxGeometry relative="1" as="geometry" />
        </mxCell>
        <mxCell id="gd3LbHA6IAXDdcClC6Ps-20" value=":domain" style="shape=module;align=left;spacingLeft=20;align=center;verticalAlign=top;fillColor=#d5e8d4;strokeColor=#82b366;" parent="1" vertex="1">
          <mxGeometry x="305" y="490" width="100" height="50" as="geometry" />
        </mxCell>
        <mxCell id="gd3LbHA6IAXDdcClC6Ps-21" value=":core:ui" style="shape=module;align=left;spacingLeft=20;align=center;verticalAlign=top;fillColor=#dae8fc;strokeColor=#6c8ebf;" parent="1" vertex="1">
          <mxGeometry x="172.5" y="210" width="100" height="50" as="geometry" />
        </mxCell>
        <mxCell id="gd3LbHA6IAXDdcClC6Ps-39" value="" style="shape=module;align=left;spacingLeft=20;align=center;verticalAlign=top;fillColor=#d5e8d4;strokeColor=#82b366;" parent="1" vertex="1">
          <mxGeometry x="485" y="582" width="40" height="40" as="geometry" />
        </mxCell>
        <mxCell id="gd3LbHA6IAXDdcClC6Ps-41" value="" style="shape=module;align=left;spacingLeft=20;align=center;verticalAlign=top;fillColor=#dae8fc;strokeColor=#6c8ebf;" parent="1" vertex="1">
          <mxGeometry x="320" y="582" width="40" height="40" as="geometry" />
        </mxCell>
        <mxCell id="gd3LbHA6IAXDdcClC6Ps-42" value="" style="shape=module;align=left;spacingLeft=20;align=center;verticalAlign=top;" parent="1" vertex="1">
          <mxGeometry x="147.5" y="582" width="40" height="40" as="geometry" />
        </mxCell>
        <mxCell id="gd3LbHA6IAXDdcClC6Ps-43" value="Kotlin library" style="text;align=center;fontStyle=0;verticalAlign=middle;spacingLeft=3;spacingRight=3;strokeColor=none;rotatable=0;points=[[0,0.5],[1,0.5]];portConstraint=eastwest;" parent="1" vertex="1">
          <mxGeometry x="525" y="589" width="80" height="26" as="geometry" />
        </mxCell>
        <mxCell id="gd3LbHA6IAXDdcClC6Ps-44" value="Android library" style="text;align=center;fontStyle=0;verticalAlign=middle;spacingLeft=3;spacingRight=3;strokeColor=none;rotatable=0;points=[[0,0.5],[1,0.5]];portConstraint=eastwest;" parent="1" vertex="1">
          <mxGeometry x="370" y="589" width="80" height="26" as="geometry" />
        </mxCell>
        <mxCell id="gd3LbHA6IAXDdcClC6Ps-45" value="Android application" style="text;align=center;fontStyle=0;verticalAlign=middle;spacingLeft=3;spacingRight=3;strokeColor=none;rotatable=0;points=[[0,0.5],[1,0.5]];portConstraint=eastwest;" parent="1" vertex="1">
          <mxGeometry x="205" y="589" width="80" height="26" as="geometry" />
        </mxCell>
        <mxCell id="gd3LbHA6IAXDdcClC6Ps-46" value="" style="line;strokeWidth=1;fillColor=none;align=left;verticalAlign=middle;spacingTop=-1;spacingLeft=3;spacingRight=3;rotatable=0;labelPosition=right;points=[];portConstraint=eastwest;strokeColor=inherit;" parent="1" vertex="1">
          <mxGeometry x="95" y="503" width="527.5" height="112" as="geometry" />
        </mxCell>
        <mxCell id="gd3LbHA6IAXDdcClC6Ps-47" value="Modules" style="text;html=1;align=center;verticalAlign=middle;resizable=0;points=[];autosize=1;strokeColor=none;fillColor=none;" parent="1" vertex="1">
          <mxGeometry x="95" y="560" width="70" height="30" as="geometry" />
        </mxCell>
        <mxCell id="Wq6TtEWR0SI39v2RViTA-8" style="edgeStyle=orthogonalEdgeStyle;rounded=0;orthogonalLoop=1;jettySize=auto;html=1;entryX=0.5;entryY=0;entryDx=0;entryDy=0;dashed=1;endArrow=block;endFill=1;" edge="1" parent="1" source="Wq6TtEWR0SI39v2RViTA-4" target="gd3LbHA6IAXDdcClC6Ps-20">
          <mxGeometry relative="1" as="geometry">
            <Array as="points">
              <mxPoint x="355" y="440" />
              <mxPoint x="355" y="440" />
            </Array>
          </mxGeometry>
        </mxCell>
        <mxCell id="Wq6TtEWR0SI39v2RViTA-9" style="edgeStyle=orthogonalEdgeStyle;rounded=0;orthogonalLoop=1;jettySize=auto;html=1;entryX=0.5;entryY=0;entryDx=0;entryDy=0;dashed=1;endArrow=block;endFill=1;" edge="1" parent="1" source="Wq6TtEWR0SI39v2RViTA-4" target="gd3LbHA6IAXDdcClC6Ps-17">
          <mxGeometry relative="1" as="geometry">
            <Array as="points">
              <mxPoint x="355" y="455" />
              <mxPoint x="193" y="455" />
            </Array>
          </mxGeometry>
        </mxCell>
        <mxCell id="Wq6TtEWR0SI39v2RViTA-10" style="edgeStyle=orthogonalEdgeStyle;rounded=0;orthogonalLoop=1;jettySize=auto;html=1;entryX=0.5;entryY=0;entryDx=0;entryDy=0;dashed=1;endArrow=block;endFill=1;" edge="1" parent="1" source="Wq6TtEWR0SI39v2RViTA-4" target="gd3LbHA6IAXDdcClC6Ps-16">
          <mxGeometry relative="1" as="geometry">
            <Array as="points">
              <mxPoint x="355" y="455" />
              <mxPoint x="525" y="455" />
            </Array>
          </mxGeometry>
        </mxCell>
        <mxCell id="Wq6TtEWR0SI39v2RViTA-11" style="edgeStyle=orthogonalEdgeStyle;rounded=0;orthogonalLoop=1;jettySize=auto;html=1;entryX=0.5;entryY=1;entryDx=0;entryDy=0;dashed=1;endArrow=block;endFill=1;" edge="1" parent="1" source="Wq6TtEWR0SI39v2RViTA-4" target="gd3LbHA6IAXDdcClC6Ps-21">
          <mxGeometry relative="1" as="geometry">
            <Array as="points">
              <mxPoint x="223" y="265" />
            </Array>
          </mxGeometry>
        </mxCell>
        <mxCell id="Wq6TtEWR0SI39v2RViTA-4" value="" style="swimlane;startSize=0;dashed=1;fillColor=#fff2cc;fillStyle=solid;swimlaneFillColor=none;strokeColor=#d6b656;" vertex="1" parent="1">
          <mxGeometry x="142.5" y="300" width="432.5" height="120" as="geometry">
            <mxRectangle x="87.5" y="270" width="50" height="40" as="alternateBounds" />
          </mxGeometry>
        </mxCell>
        <mxCell id="gd3LbHA6IAXDdcClC6Ps-19" value=":feature:match" style="shape=module;align=left;spacingLeft=20;align=center;verticalAlign=top;fillColor=#dae8fc;strokeColor=#6c8ebf;" parent="Wq6TtEWR0SI39v2RViTA-4" vertex="1">
          <mxGeometry x="22.5" y="40" width="100" height="50" as="geometry" />
        </mxCell>
        <mxCell id="Wq6TtEWR0SI39v2RViTA-5" value=":feature:movie" style="shape=module;align=left;spacingLeft=20;align=center;verticalAlign=top;fillColor=#dae8fc;strokeColor=#6c8ebf;" vertex="1" parent="Wq6TtEWR0SI39v2RViTA-4">
          <mxGeometry x="312.5" y="40" width="100" height="50" as="geometry" />
        </mxCell>
        <mxCell id="Wq6TtEWR0SI39v2RViTA-6" value="Features" style="text;html=1;align=center;verticalAlign=middle;resizable=0;points=[];autosize=1;strokeColor=none;fillColor=none;" vertex="1" parent="Wq6TtEWR0SI39v2RViTA-4">
          <mxGeometry x="22.5" width="70" height="30" as="geometry" />
        </mxCell>
      </root>
    </mxGraphModel>
  </diagram>
</mxfile>
